<?xml version="1.0" encoding="iso-8859-1"?>
<!DOCTYPE svg PUBLIC "-//W3C//DTD SVG 1.1//EN" "http://www.w3.org/Graphics/SVG/1.1/DTD/svg11.dtd">
<svg 
 version="1.1" xmlns="http://www.w3.org/2000/svg" xmlns:xlink="http://www.w3.org/1999/xlink" x="0px" y="0px" width="512px"
	 height="512px" viewBox="0 0 512 512" style="enable-background:new 0 0 512 512;" xml:space="preserve"
><g id="afcae5a789ccd549f9c6e2a2f81b0afd"><g></g><path style="display: inline; fill-rule: evenodd; clip-rule: evenodd;" d="M505.67,479.335l0.017-0.017l-0.004-0.004l5.817-5.813
		l-11.619-11.619l-5.817,5.813L280.406,254.039l34.902-34.902l4.625,4.624l11.618-11.619l-4.624-4.624l43.698-43.698
		c0,0,8.025,4.566,11.693,10.678c3.16,5.267,2.033,12.205,2.033,12.205s-8.425,18.383-23.092,32.813
		c-17.391,17.117-41.485,30.744-41.485,30.744s39.406,36.508,92.069,28.004c27.995-4.521,51.325-23.937,51.325-23.937
		s29.791-25.787,39.11-51.362c28.702-78.774-18.779-112.361-18.779-112.361s-16.672,25.822-32.541,41.691
		c-9.831,9.835-21.861,12.713-21.861,12.713s-8.833-0.308-14.317-4.331c-5.938-4.353-8.563-12.449-8.563-12.449l57.454-57.454
		l6.101,6.101c0,0,15.636-17.84,25.633-37.83c8.109-16.223,10.979-35.389,10.979-35.389s-18.817,2.875-35.746,11.338
		c-19.496,9.75-37.473,25.271-37.473,25.271l6.101,6.103l-58.977,58.98c0,0-7.893-5.655-11.07-12.534
		c-2.915-6.316-1.135-13.905-1.135-13.905l28.474-29.493c0,0-17.782-15.916-41.262-12.172c-32.282,5.148-48.23,25.393-48.23,25.393
		s-24.498,23.766-28.461,56.053c-2.687,21.832,18.294,32.42,18.294,32.42l27.966-27.967c0,0,7.353,0.225,12.663,3.269
		c6.512,3.747,11.231,10.463,11.231,10.463l-46.238,46.239l-5.817-5.815l-11.619,11.616l5.817,5.818L256,229.633l-34.902-34.902
		l5.817-5.818l-11.619-11.616l-5.817,5.815l-46.239-46.239c0,0,4.72-6.716,11.232-10.463c5.31-3.044,12.663-3.269,12.663-3.269
		l27.966,27.967c0,0,20.98-10.588,18.294-32.42c-3.964-32.287-28.461-56.053-28.461-56.053s-15.948-20.244-48.231-25.393
		c-23.479-3.744-41.261,12.172-41.261,12.172l28.473,29.493c0,0,1.78,7.589-1.135,13.905c-3.177,6.879-11.07,12.534-11.07,12.534
		l-58.977-58.98l6.101-6.103c0,0-17.977-15.521-37.472-25.271C24.432,6.529,5.615,3.654,5.615,3.654s2.87,19.166,10.979,35.389
		c9.998,19.99,25.633,37.83,25.633,37.83l6.101-6.101l57.454,57.454c0,0-2.624,8.097-8.562,12.449
		c-5.485,4.023-14.318,4.331-14.318,4.331s-12.031-2.878-21.861-12.713C45.171,116.425,28.5,90.603,28.5,90.603
		s-47.482,33.587-18.78,112.361c9.319,25.575,39.111,51.362,39.111,51.362s23.329,19.416,51.324,23.937
		c52.664,8.504,92.07-28.004,92.07-28.004s-24.094-13.627-41.485-30.744c-14.667-14.43-23.092-32.813-23.092-32.813
		s-1.127-6.938,2.034-12.205c3.667-6.111,11.694-10.678,11.694-10.678l43.698,43.698l-4.624,4.624l11.618,11.619l4.625-4.624
		l34.902,34.902L17.937,467.695l-5.817-5.813L0.5,473.501l5.818,5.813l-0.004,0.004l0.017,0.017
		c-0.045,0.046-0.108,0.075-0.162,0.129c-5.693,5.689-4.84,15.77,1.896,22.511c6.741,6.741,16.821,7.589,22.51,1.896
		c0.05-0.055,0.083-0.112,0.133-0.162l0.017,0.017l0,0l4.625,4.62l11.619-11.619l-4.624-4.62L256,278.445l213.657,213.661
		l-4.625,4.62l11.619,11.619l4.624-4.62l0,0l0.017-0.017c0.051,0.05,0.084,0.107,0.134,0.162c5.688,5.692,15.769,4.845,22.51-1.896
		c6.737-6.741,7.59-16.821,1.896-22.511C505.777,479.41,505.716,479.381,505.67,479.335z M463.502,202.964
		c8.771-24.069,10.409-43.901,8.479-59.864c4.978-5.375,9.86-11.294,14.227-16.95c6.221,14.002,9.972,36.598-2.025,69.524
		c-5.992,16.451-25.937,36.342-32.811,42.351c-1.285,1.027-11.549,9.012-25.039,14.551
		C433.021,246.445,455.597,224.663,463.502,202.964z M60.628,238.024c-6.874-6.009-26.818-25.899-32.811-42.351
		c-11.998-32.927-8.247-55.522-2.025-69.524c4.367,5.656,9.249,11.575,14.227,16.95c-1.93,15.963-0.291,35.795,8.479,59.864
		c7.906,21.699,30.482,43.481,37.169,49.611C72.176,247.036,61.913,239.052,60.628,238.024z"></path></g></svg>